<?xml version="1.0" encoding="UTF-8"?>
<svg version="1.1" xmlns="http://www.w3.org/2000/svg" width="1024" height="188">
<path d="M0 0 C0.495 0.99 0.495 0.99 1 2 C1.33 0.02 1.66 -1.96 2 -4 C13.22 -4 24.44 -4 36 -4 C36.04530344 9.85692941 36.08194645 23.7138091 36.10362434 37.57079601 C36.11403208 44.00612848 36.12813607 50.44140735 36.15087891 56.87670898 C36.1727149 63.094791 36.18459123 69.31282168 36.18975449 75.5309391 C36.193431 77.89541748 36.20060998 80.25989326 36.21146011 82.62434959 C36.38064425 121.04388294 36.38064425 121.04388294 24.16796875 133.93359375 C11.02154769 146.46414643 -4.95531565 150.18985047 -22.5559082 150.29516602 C-24.53295222 150.31224475 -26.50970614 150.35611587 -28.48632812 150.40039062 C-44.16414433 150.50265435 -56.82355383 145.87528664 -68.375 135.1875 C-75.24028335 127.87110974 -77.28717734 120.78435384 -78 111 C-72.50081611 110.87647835 -67.00243782 110.7856991 -61.50219727 110.7253418 C-59.63096046 110.70018422 -57.75982205 110.66605407 -55.88891602 110.62280273 C-53.20043697 110.56220323 -50.51325564 110.53380397 -47.82421875 110.51171875 C-46.98662521 110.48591232 -46.14903168 110.4601059 -45.28605652 110.43351746 C-42.9206543 110.43237305 -42.9206543 110.43237305 -39 111 C-37.06176758 113.42504883 -37.06176758 113.42504883 -36 116 C-31.58111288 120.11413628 -26.19476254 121.50346928 -20.2109375 121.30859375 C-13.3312988 120.34836149 -7.43585734 117.63559799 -3.18359375 112.0703125 C-0.54043372 107.44696327 1 102.32307549 1 97 C0.56429687 97.39832031 0.12859375 97.79664063 -0.3203125 98.20703125 C-8.56765238 105.54395049 -15.54281171 107.17911892 -26.3125 107.1875 C-27.12912109 107.19974609 -27.94574219 107.21199219 -28.78710938 107.22460938 C-43.29012029 107.25927793 -55.05137333 101.62339645 -65.38671875 91.7109375 C-76.99967168 79.61811049 -80.54038518 64.64790606 -80.41943359 48.23608398 C-79.94944538 33.04030377 -75.18050786 18.93981195 -64.70703125 7.58203125 C-47.53441971 -8.33308929 -20.1131073 -13.26609205 0 0 Z M-42 35 C-46.38198645 41.39499983 -47.14307744 48.43203902 -46 56 C-43.4070718 63.65126355 -39.28177599 69.36134715 -32.125 73.25 C-25.22818031 76.39659371 -19.82771327 76.24946794 -12.65234375 74.07421875 C-5.8188857 71.30661792 -2.12510141 66.49059523 1 60 C3.31486244 52.48058105 2.66065864 44.49415647 -0.53515625 37.36328125 C-3.80298672 32.09118143 -8.45162139 28.30129971 -13.9375 25.5 C-25.48390509 23.61487264 -34.05759834 26.16170921 -42 35 Z " fill="#FFFFFF" transform="translate(475,38)"/>
<path d="M0 0 C11.22 0 22.44 0 34 0 C37.37267081 11.24223602 37.37267081 11.24223602 38.6484375 16.6171875 C38.92937256 17.7925708 39.21030762 18.9679541 39.49975586 20.17895508 C39.78858643 21.3986499 40.07741699 22.61834473 40.375 23.875 C40.98762724 26.43895844 41.60091233 29.00275978 42.21484375 31.56640625 C42.51503418 32.8208252 42.81522461 34.07524414 43.12451172 35.36767578 C45.02656269 43.2591187 47.01185653 51.1298837 49 59 C52.99130002 44.29434202 56.92321606 29.57634687 60.68969727 14.8112793 C60.96354248 13.74433838 61.2373877 12.67739746 61.51953125 11.578125 C61.75776611 10.64387695 61.99600098 9.70962891 62.24145508 8.74707031 C63.05519572 5.8001087 64.03321375 2.90035876 65 0 C74.57 0 84.14 0 94 0 C95.18140462 3.54421387 96.31582863 6.99022244 97.296875 10.57739258 C97.53051758 11.42880325 97.76416016 12.28021393 98.00488281 13.15742493 C98.25077148 14.06067001 98.49666016 14.9639151 98.75 15.89453125 C99.0087793 16.84132248 99.26755859 17.78811371 99.53417969 18.76359558 C100.07962284 20.76119272 100.62420169 22.75902604 101.16796875 24.75708008 C101.99458243 27.79260536 102.82523861 30.82700423 103.65625 33.86132812 C104.18774579 35.8098288 104.71900352 37.75839444 105.25 39.70703125 C105.49588867 40.60420364 105.74177734 41.50137604 105.99511719 42.42573547 C107.48704387 47.92281008 108.80415659 53.43079648 110 59 C112.01659492 53.37880873 113.38146278 47.63219386 114.78515625 41.8359375 C115.04630722 40.76630768 115.30745819 39.69667786 115.57652283 38.59463501 C116.40754425 35.18866074 117.23508716 31.78185251 118.0625 28.375 C118.62281359 26.07546398 119.18335796 23.77598417 119.74414062 21.4765625 C120.97746796 16.4185235 122.20855183 11.35994419 123.43763733 6.3008728 C123.95139804 4.19885196 124.47517837 2.09928653 125 0 C136.55 0 148.1 0 160 0 C157.75083461 12.37040962 157.75083461 12.37040962 156.08203125 17.609375 C155.71851563 18.76373047 155.355 19.91808594 154.98046875 21.10742188 C154.59503906 22.30947266 154.20960938 23.51152344 153.8125 24.75 C153.40548185 26.03686667 152.99924433 27.32398048 152.59375 28.61132812 C151.97952008 30.56106703 151.36485543 32.51065404 150.74771118 34.45947266 C148.95347001 40.12627906 147.21858564 45.80988864 145.5 51.5 C139.78113617 70.36838314 133.89158322 89.1849439 128 108 C117.44 108 106.88 108 96 108 C84.19186213 64.42776448 84.19186213 64.42776448 80 46 C75.94854063 59.22382139 72.53839006 72.56854763 69.25 86 C68.28006948 89.95933851 67.30548088 93.91748881 66.328125 97.875 C66.10835999 98.77895508 65.88859497 99.68291016 65.66217041 100.61425781 C65.45815613 101.44022461 65.25414185 102.26619141 65.04394531 103.1171875 C64.77677704 104.20942627 64.77677704 104.20942627 64.50421143 105.32373047 C64 107 64 107 63 108 C60.6243148 108.0883967 58.27791326 108.11530305 55.90234375 108.09765625 C54.83905602 108.09553383 54.83905602 108.09553383 53.75428772 108.09336853 C51.48198288 108.08775443 49.20977525 108.07519963 46.9375 108.0625 C45.40039204 108.05748681 43.86328255 108.05292359 42.32617188 108.04882812 C38.55074358 108.03778042 34.77538829 108.02050641 31 108 C30.81953629 107.4004097 30.63907257 106.8008194 30.45314026 106.18305969 C20.2765219 72.27595359 20.2765219 72.27595359 9.875 38.4375 C9.35800537 36.77605957 9.35800537 36.77605957 8.83056641 35.08105469 C7.5759049 31.05055507 6.32060363 27.02029826 5.05517578 22.99316406 C4.17476278 20.18531027 3.30488816 17.37439965 2.4375 14.5625 C2.18532715 13.76835693 1.9331543 12.97421387 1.67333984 12.15600586 C1.44984863 11.42518799 1.22635742 10.69437012 0.99609375 9.94140625 C0.80200928 9.31951416 0.6079248 8.69762207 0.40795898 8.05688477 C0 6 0 6 0 0 Z " fill="#FFFFFF" transform="translate(0,34)"/>
<path d="M0 0 C10.89 0 21.78 0 33 0 C33 13.2 33 26.4 33 40 C35.97 38.02 38.94 36.04 42 34 C48.91783136 31.40100538 54.95683343 30.47498951 62.3125 30.5625 C63.22894287 30.57152344 64.14538574 30.58054687 65.08959961 30.58984375 C79.00884397 30.94319257 89.99527395 35.73026549 100.33984375 45.125 C102 47 102 47 102 49 C102.66 49 103.32 49 104 49 C114.27390894 62.796392 117.51656789 79.13235368 116 96 C113.66287789 111.81203617 106.88260684 125.60377267 94.703125 136.10546875 C84.90533739 142.97241527 74.47138734 145.18424187 62.75 145.25 C61.39455078 145.2809375 61.39455078 145.2809375 60.01171875 145.3125 C50.45628942 145.36749528 41.29649994 142.78393543 34.0625 136.25 C33.711875 135.8375 33.36125 135.425 33 135 C32.67 137.31 32.34 139.62 32 142 C21.44 142 10.88 142 0 142 C0 95.14 0 48.28 0 0 Z M39 70 C34.22858181 76.18994793 31.27408048 83.06589601 32.24609375 91.01171875 C33.90833341 98.49915224 36.88955459 104.95845305 43.01953125 109.7421875 C48.56046257 113.26127998 54.16929816 114.71509141 60.67578125 113.625 C68.4629313 111.53097646 74.00599215 108.02211026 78.65625 101.38671875 C82.40014095 94.73695895 82.89056762 87.34845629 81 80 C77.86318105 72.41561989 73.32056923 67.64753101 66 64 C56.27115179 60.07030837 46.53054071 63.038172 39 70 Z " fill="#FFFFFF" transform="translate(275,0)"/>
<path d="M0 0 C10.89 0 21.78 0 33 0 C33 46.86 33 93.72 33 142 C22.44 142 11.88 142 1 142 C0.505 138.535 0.505 138.535 0 135 C-0.42410156 135.39832031 -0.84820313 135.79664063 -1.28515625 136.20703125 C-11.91108146 145.80539446 -23.71057605 145.6585945 -37.40039062 145.17480469 C-47.81044119 144.47480504 -55.96025261 140.48416408 -64 134 C-64.886875 133.401875 -65.77375 132.80375 -66.6875 132.1875 C-78.24322941 121.25640462 -82.74147503 106.40667118 -84 91 C-84.26691752 74.56789031 -79.47675452 58.80492219 -69 46 C-68.34 46 -67.68 46 -67 46 C-67 45.34 -67 44.68 -67 44 C-56.35978095 34.98135922 -44.53437936 30.63779835 -30.6875 30.6875 C-29.80126953 30.67138672 -28.91503906 30.65527344 -28.00195312 30.63867188 C-16.94516607 30.63060711 -10.47220505 33.68519664 -1 40 C-0.67 26.8 -0.34 13.6 0 0 Z M-43 70 C-48.86487147 77.76411742 -49.60491436 84.37843756 -49 94 C-47.62714288 101.6955569 -42.61756023 106.08585426 -36.75 110.8125 C-29.53526943 113.92795184 -22.81319482 114.80470227 -15.35546875 112.11328125 C-7.88681758 108.58332174 -3.18082197 103.79780834 0.25 96.25 C1.99666749 88.68110755 1.67755587 80.95509689 -2 74 C-7.9938494 66.3781915 -14.96107243 62.90242661 -24.4375 61.6875 C-31.36235103 62.53199403 -37.95760379 65.09557981 -43 70 Z " fill="#FFFFFF" transform="translate(789,0)"/>
<path d="M0 0 C0.7321875 0.49113281 1.464375 0.98226562 2.21875 1.48828125 C2.21875 2.14828125 2.21875 2.80828125 2.21875 3.48828125 C3.20875 3.81828125 4.19875 4.14828125 5.21875 4.48828125 C5.54875 2.17828125 5.87875 -0.13171875 6.21875 -2.51171875 C17.43875 -2.51171875 28.65875 -2.51171875 40.21875 -2.51171875 C40.21875 33.12828125 40.21875 68.76828125 40.21875 105.48828125 C28.99875 105.48828125 17.77875 105.48828125 6.21875 105.48828125 C5.72375 102.02328125 5.72375 102.02328125 5.21875 98.48828125 C4.79464844 98.88660156 4.37054687 99.28492188 3.93359375 99.6953125 C-6.69959382 109.30023578 -18.52789266 109.15258235 -32.22900391 108.66748047 C-44.51073082 107.80515145 -55.62944887 101.52728809 -63.96875 92.68359375 C-73.50291177 81.13575126 -78.18804561 67.07636945 -78.09375 52.23828125 C-78.08811035 51.31023682 -78.0824707 50.38219238 -78.07666016 49.42602539 C-77.78764222 33.05644996 -72.0568719 19.7374848 -60.578125 8.12109375 C-44.3190407 -7.18424538 -19.66680267 -10.68968067 0 0 Z M-38.78125 35.48828125 C-43.37306465 42.60161261 -45.06576785 50.20710681 -43.35546875 58.5703125 C-41.11574864 65.53680388 -36.35698637 71.34371349 -29.96875 74.92578125 C-23.23986107 77.81699942 -17.21055226 78.34453846 -10.34375 75.67578125 C-7.58708259 74.45010409 -5.30554782 73.17114647 -2.78125 71.48828125 C-2.78125 70.82828125 -2.78125 70.16828125 -2.78125 69.48828125 C-1.79125 69.15828125 -0.80125 68.82828125 0.21875 68.48828125 C4.97590055 62.57621554 6.56497542 55.9645865 6.21875 48.48828125 C4.89884053 39.97761497 -0.20193291 34.32190728 -6.78125 29.11328125 C-18.64873388 22.68506081 -30.04109809 25.52213518 -38.78125 35.48828125 Z " fill="#FFFFFF" transform="translate(657.78125,36.51171875)"/>
<path d="M0 0 C9.54693369 8.03411189 15.37879764 17.12663458 19 29 C19.226875 29.69351563 19.45375 30.38703125 19.6875 31.1015625 C21.57896013 37.90556492 23.20908854 50.58182292 20 57 C-5.74 57 -31.48 57 -58 57 C-54.10136647 64.79726707 -51.79602202 68.60198899 -44.25 72.375 C-36.9671534 73.77554742 -30.49017003 73.91654475 -23.8515625 70.36328125 C-21.79916613 68.96680492 -21.79916613 68.96680492 -19.87963867 66.4453125 C-16.2624938 63.37372937 -13.59941833 63.34905139 -9.07421875 63.51171875 C-8.32662796 63.51879349 -7.57903717 63.52586823 -6.80879211 63.53315735 C-4.43398598 63.56102355 -2.06158649 63.62373868 0.3125 63.6875 C1.92770018 63.71259332 3.54293754 63.73540469 5.15820312 63.75585938 C9.10638819 63.81082353 13.05278689 63.89703473 17 64 C16.37555621 69.0906965 15.56538452 72.34822943 12.6875 76.625 C12.09324219 77.52476563 11.49898438 78.42453125 10.88671875 79.3515625 C9.00559323 81.99214864 7.13633364 84.55973436 5 87 C4.34 87 3.68 87 3 87 C3 87.66 3 88.32 3 89 C-8.16064927 98.28529427 -20.75451117 103.60802213 -35.3125 103.4375 C-36.22749268 103.42992676 -37.14248535 103.42235352 -38.08520508 103.41455078 C-54.67929171 103.01328172 -67.62703812 95.8317032 -79 84 C-84.08142186 77.90812331 -87.53778338 71.52668114 -90 64 C-90.35707031 62.95457031 -90.71414062 61.90914063 -91.08203125 60.83203125 C-94.03263125 48.51484572 -92.93190353 34.59487254 -88 23 C-87.67257813 22.14664063 -87.34515625 21.29328125 -87.0078125 20.4140625 C-81.1184847 6.78693175 -69.03135989 -2.77412076 -55.625 -8.375 C-37.19224674 -15.46452048 -15.73182392 -11.17091698 0 0 Z M-54.28515625 25.8671875 C-56.44306218 28.21504639 -56.44306218 28.21504639 -57 33 C-42.81 33 -28.62 33 -14 33 C-16.22320265 26.33039205 -18.19608673 23.68916477 -24 20 C-36.05310858 15.39288986 -44.65460567 17.23523531 -54.28515625 25.8671875 Z " fill="#FFFFFF" transform="translate(249,42)"/>
<path d="M0 0 C0 0.66 0 1.32 0 2 C0.88558594 2.38671875 0.88558594 2.38671875 1.7890625 2.78125 C10.79305106 7.74457938 16.37642127 19.45506922 19.3125 28.8125 C21.17442253 35.26245104 22.13829492 40.88447729 22.125 47.625 C22.12886719 49.59339844 22.12886719 49.59339844 22.1328125 51.6015625 C22 55 22 55 21 58 C-4.74 58 -30.48 58 -57 58 C-53.10136647 65.79726707 -50.79602202 69.60198899 -43.25 73.375 C-35.92257463 74.78412026 -29.45187713 74.87863098 -22.75390625 71.36328125 C-20.79997793 70.00472532 -20.79997793 70.00472532 -19.39331055 67.4453125 C-17 65 -17 65 -13.33300781 64.43237305 C-11.87280754 64.43316036 -10.41245008 64.46116419 -8.953125 64.51171875 C-7.79632233 64.52233086 -7.79632233 64.52233086 -6.6161499 64.53315735 C-4.15976788 64.56108422 -1.70568949 64.62381261 0.75 64.6875 C2.41793576 64.71258539 4.08590736 64.73539815 5.75390625 64.75585938 C9.83682127 64.81090438 13.91802049 64.89715943 18 65 C17.2918352 70.08578946 15.76185054 73.63264116 12.9375 77.875 C12.53192871 78.48996338 12.12635742 79.10492676 11.70849609 79.73852539 C3.93518606 91.237747 -6.61299657 99.60871385 -20.1484375 103.33984375 C-38.08885307 106.4148237 -53.43753576 103.35619093 -69 94 C-69 93.34 -69 92.68 -69 92 C-69.57105469 91.75765625 -70.14210938 91.5153125 -70.73046875 91.265625 C-80.85070566 85.6219817 -86.8615124 72.85028861 -90.171875 62.24609375 C-93.82846175 46.38500564 -91.47054347 29.68320536 -83.03125 15.93359375 C-76.54789239 6.5701292 -69.16670748 -0.18855619 -59 -5.1875 C-58.30132813 -5.54263672 -57.60265625 -5.89777344 -56.8828125 -6.26367188 C-56.19960938 -6.60333984 -55.51640625 -6.94300781 -54.8125 -7.29296875 C-54.20019531 -7.5974292 -53.58789062 -7.90188965 -52.95703125 -8.21557617 C-35.66764655 -15.14556532 -15.01679696 -9.02813445 0 0 Z M-52.40625 26.28125 C-54.84685004 28.91326965 -56 30.34322785 -56 34 C-41.81 34 -27.62 34 -13 34 C-15.61244091 27.46889773 -18.04583874 23.66339184 -24.375 20.6875 C-35.36639234 16.37786017 -43.84679798 18.28307352 -52.40625 26.28125 Z " fill="#FFFFFF" transform="translate(920,41)"/>
<path d="M0 0 C4.09041054 -0.58489973 8.19263553 -0.4723326 12.32128906 -0.44604492 C14.36106002 -0.437558 16.39800776 -0.46624145 18.4375 -0.49804688 C19.72398437 -0.49740234 21.01046875 -0.49675781 22.3359375 -0.49609375 C23.51720215 -0.49794678 24.6984668 -0.4997998 25.91552734 -0.50170898 C31.09681068 0.34105952 33.19346679 4.07936979 36.13671875 8.125 C36.71019043 8.90883057 37.28366211 9.69266113 37.87451172 10.50024414 C38.47279785 11.32516357 39.07108398 12.15008301 39.6875 13 C40.93303392 14.70743977 42.17912818 16.41447093 43.42578125 18.12109375 C44.33577881 19.36802002 44.33577881 19.36802002 45.26416016 20.64013672 C46.79712128 22.72418767 48.34821914 24.79125667 49.91796875 26.84765625 C50.33925049 27.40001953 50.76053223 27.95238281 51.19458008 28.52148438 C52.30104987 29.96595953 53.41208263 31.40693621 54.5234375 32.84765625 C56 35 56 35 56 37 C56.66 37 57.32 37 58 37 C63.23442616 42.87800315 68.69839326 49.04737865 68.6875 57.25 C68.44986533 59.88345963 68.17985049 61.64029902 67 64 C66.34 64 65.68 64 65 64 C64.7215625 64.57234375 64.443125 65.1446875 64.15625 65.734375 C63.01726208 67.96617566 61.80063617 70.10870874 60.5 72.25 C60.0771875 72.95640625 59.654375 73.6628125 59.21875 74.390625 C58.8165625 74.92171875 58.414375 75.4528125 58 76 C57.34 76 56.68 76 56 76 C55.79246094 76.66257812 55.58492187 77.32515625 55.37109375 78.0078125 C53.49526374 82.10150421 50.84165338 85.3523661 48.0625 88.875 C46.88920741 90.38170968 45.71736087 91.88954639 44.546875 93.3984375 C43.95583984 94.15995117 43.36480469 94.92146484 42.75585938 95.70605469 C39.55712497 99.88504641 36.48399173 104.1567873 33.42797852 108.44091797 C30.21391325 112.89304337 30.21391325 112.89304337 28 114 C23.33791703 114.24487459 18.66778632 114.18520286 14 114.1875 C12.6903125 114.19974609 11.380625 114.21199219 10.03125 114.22460938 C8.15953125 114.22750977 8.15953125 114.22750977 6.25 114.23046875 C5.10015625 114.23457764 3.9503125 114.23868652 2.765625 114.24291992 C0 114 0 114 -2 112 C-3.26591697 105.52975768 -0.28695836 101.59907225 3.0546875 96.1875 C13.46576527 79.12838462 18.50100451 60.29360038 13.75 40.4375 C13.20102521 38.61429932 12.61987427 36.8003305 12 35 C11.74476563 34.20078125 11.48953125 33.4015625 11.2265625 32.578125 C9.01478351 26.36891058 5.68351844 20.93035524 2.08544922 15.44018555 C-0.52413617 11.32912713 -1.83697227 7.99347913 -2 3 C-1.34 2.01 -0.68 1.02 0 0 Z " fill="#E81C1D" transform="translate(956,31)"/>
<path d="M0 0 C0 11.22 0 22.44 0 34 C-4.29 34.66 -8.58 35.32 -13 36 C-17.56997262 37.52332421 -19.82970002 39.33207199 -22.15515137 43.58596802 C-24.08482152 49.09971958 -23.60595089 55.12364461 -23.609375 60.90234375 C-23.6243723 62.34967383 -23.64110269 63.7969869 -23.65948486 65.24427795 C-23.70299761 69.03358793 -23.72312135 72.82266712 -23.73822021 76.61218262 C-23.76130754 81.16959744 -23.81371848 85.72675982 -23.86116028 90.28397369 C-23.92979124 97.18938134 -23.961387 104.09406562 -24 111 C-35.22 111 -46.44 111 -58 111 C-58 75.36 -58 39.72 -58 3 C-47.44 3 -36.88 3 -26 3 C-25.505 5.97 -25.505 5.97 -25 9 C-24.278125 8.236875 -23.55625 7.47375 -22.8125 6.6875 C-15.47754457 -0.32145741 -10.5056169 0 0 0 Z " fill="#FFFFFF" transform="translate(581,31)"/>
</svg>
